# xmcd
#
# Track frame offsets: 
#        187
#        12850
#        24555
#        37362
#        51065
#        61902
#        73677
#        85267
#        96985
#        108912
#        121397
#        132830
#        145932
#        156890
#        168362
#        177785
#        191315
#        202725
#
# Disc length: 2852 seconds
#
# Revision: 0
# Processed by: cddbd v1.5.1PL0 Copyright (c) Steve Scherf et al.
# Submitted via: ExactAudioCopy v0.95a5
#
DISCID=f10b2212
DTITLE=Various Artist - 30 Years of No. 1 Country Hits Disc 1
DYEAR=1990
DGENRE=Country
TTITLE0=Chattanoogie Shoe Shine Boy
TTITLE1=Kentucky Waltz
TTITLE2=I'm Movin' On
TTITLE3=Slow Poke
TTITLE4=Why Don't You Love Me
TTITLE5=Shotgun Boogie
TTITLE6=A Dear John Letter
TTITLE7=Kaw-Liga
TTITLE8=Mexican Joe
TTITLE9=The Wild Side Of Life
TTITLE10=It Wasn't God Who Made Honky Tonk Angels
TTITLE11=Jambalaya
TTITLE12=Cattle Call
TTITLE13=Slowly
TTITLE14=In The Jailhouse Now
TTITLE15=I Don't Hurt Anymore
TTITLE16=Why Baby Why
TTITLE17=I Forgot To Remember To Forget
EXTD=
EXTT0=
EXTT1=
EXTT2=
EXTT3=
EXTT4=
EXTT5=
EXTT6=
EXTT7=
EXTT8=
EXTT9=
EXTT10=
EXTT11=
EXTT12=
EXTT13=
EXTT14=
EXTT15=
EXTT16=
EXTT17=
PLAYORDER=
